<mxfile host="app.diagrams.net" agent="Mozilla/5.0 (Windows NT 10.0; Win64; x64) AppleWebKit/537.36 (KHTML, like Gecko) Chrome/135.0.0.0 Safari/537.36" version="26.2.13">
  <diagram name="PÃ¡gina-1" id="1VHitt35hPzP5Ct5-Wt2">
    <mxGraphModel dx="1588" dy="658" grid="1" gridSize="10" guides="1" tooltips="1" connect="1" arrows="1" fold="1" page="1" pageScale="1" pageWidth="827" pageHeight="1169" math="0" shadow="0">
      <root>
        <mxCell id="0" />
        <mxCell id="1" parent="0" />
        <mxCell id="n2ul2gyaZ89mqF2ngSw3-2" value="Usuario" style="whiteSpace=wrap;html=1;align=center;" vertex="1" parent="1">
          <mxGeometry x="630" y="370" width="100" height="40" as="geometry" />
        </mxCell>
        <mxCell id="n2ul2gyaZ89mqF2ngSw3-3" value="Producto" style="whiteSpace=wrap;html=1;align=center;" vertex="1" parent="1">
          <mxGeometry x="340" y="690" width="100" height="40" as="geometry" />
        </mxCell>
        <mxCell id="n2ul2gyaZ89mqF2ngSw3-4" value="Pedido" style="whiteSpace=wrap;html=1;align=center;" vertex="1" parent="1">
          <mxGeometry x="330" y="280" width="100" height="40" as="geometry" />
        </mxCell>
        <mxCell id="n2ul2gyaZ89mqF2ngSw3-5" value="Categoria" style="whiteSpace=wrap;html=1;align=center;" vertex="1" parent="1">
          <mxGeometry x="130" y="720" width="100" height="40" as="geometry" />
        </mxCell>
        <mxCell id="n2ul2gyaZ89mqF2ngSw3-6" value="Tienda" style="whiteSpace=wrap;html=1;align=center;" vertex="1" parent="1">
          <mxGeometry x="520" y="450" width="100" height="40" as="geometry" />
        </mxCell>
        <mxCell id="n2ul2gyaZ89mqF2ngSw3-7" value="Venta" style="whiteSpace=wrap;html=1;align=center;" vertex="1" parent="1">
          <mxGeometry x="420" y="545" width="100" height="40" as="geometry" />
        </mxCell>
        <mxCell id="n2ul2gyaZ89mqF2ngSw3-8" value="Inventario" style="whiteSpace=wrap;html=1;align=center;" vertex="1" parent="1">
          <mxGeometry x="550" y="660" width="100" height="40" as="geometry" />
        </mxCell>
        <mxCell id="n2ul2gyaZ89mqF2ngSw3-9" value="RegistroFinanciero" style="whiteSpace=wrap;html=1;align=center;" vertex="1" parent="1">
          <mxGeometry x="194" y="490" width="120" height="40" as="geometry" />
        </mxCell>
        <mxCell id="n2ul2gyaZ89mqF2ngSw3-10" value="ReporteFinanciero" style="whiteSpace=wrap;html=1;align=center;" vertex="1" parent="1">
          <mxGeometry x="370" y="380" width="110" height="40" as="geometry" />
        </mxCell>
        <mxCell id="n2ul2gyaZ89mqF2ngSw3-11" value="SaleItem" style="whiteSpace=wrap;html=1;align=center;" vertex="1" parent="1">
          <mxGeometry x="330" y="610" width="100" height="40" as="geometry" />
        </mxCell>
        <mxCell id="n2ul2gyaZ89mqF2ngSw3-12" value="OrderItem" style="whiteSpace=wrap;html=1;align=center;" vertex="1" parent="1">
          <mxGeometry x="30" y="480" width="100" height="40" as="geometry" />
        </mxCell>
        <mxCell id="n2ul2gyaZ89mqF2ngSw3-13" value="" style="endArrow=none;html=1;rounded=0;exitX=0.5;exitY=1;exitDx=0;exitDy=0;" edge="1" parent="1" source="n2ul2gyaZ89mqF2ngSw3-2" target="n2ul2gyaZ89mqF2ngSw3-6">
          <mxGeometry relative="1" as="geometry">
            <mxPoint x="340" y="640" as="sourcePoint" />
            <mxPoint x="500" y="640" as="targetPoint" />
          </mxGeometry>
        </mxCell>
        <mxCell id="n2ul2gyaZ89mqF2ngSw3-15" value="" style="endArrow=none;html=1;rounded=0;exitX=0.5;exitY=0;exitDx=0;exitDy=0;entryX=0.5;entryY=1;entryDx=0;entryDy=0;" edge="1" parent="1" source="n2ul2gyaZ89mqF2ngSw3-7" target="n2ul2gyaZ89mqF2ngSw3-6">
          <mxGeometry relative="1" as="geometry">
            <mxPoint x="340" y="470" as="sourcePoint" />
            <mxPoint x="530" y="478" as="targetPoint" />
          </mxGeometry>
        </mxCell>
        <mxCell id="n2ul2gyaZ89mqF2ngSw3-16" value="" style="endArrow=none;html=1;rounded=0;exitX=0.75;exitY=1;exitDx=0;exitDy=0;entryX=0.633;entryY=0.093;entryDx=0;entryDy=0;entryPerimeter=0;" edge="1" parent="1" source="n2ul2gyaZ89mqF2ngSw3-4" target="n2ul2gyaZ89mqF2ngSw3-6">
          <mxGeometry relative="1" as="geometry">
            <mxPoint x="374" y="560" as="sourcePoint" />
            <mxPoint x="580" y="500" as="targetPoint" />
          </mxGeometry>
        </mxCell>
        <mxCell id="n2ul2gyaZ89mqF2ngSw3-17" value="" style="endArrow=none;html=1;rounded=0;" edge="1" parent="1" source="n2ul2gyaZ89mqF2ngSw3-8">
          <mxGeometry relative="1" as="geometry">
            <mxPoint x="580" y="660" as="sourcePoint" />
            <mxPoint x="570" y="490" as="targetPoint" />
          </mxGeometry>
        </mxCell>
        <mxCell id="n2ul2gyaZ89mqF2ngSw3-18" value="" style="endArrow=none;html=1;rounded=0;exitX=0.5;exitY=1;exitDx=0;exitDy=0;entryX=0.433;entryY=0.067;entryDx=0;entryDy=0;entryPerimeter=0;" edge="1" parent="1" source="n2ul2gyaZ89mqF2ngSw3-10" target="n2ul2gyaZ89mqF2ngSw3-6">
          <mxGeometry relative="1" as="geometry">
            <mxPoint x="580" y="660" as="sourcePoint" />
            <mxPoint x="580" y="500" as="targetPoint" />
          </mxGeometry>
        </mxCell>
        <mxCell id="n2ul2gyaZ89mqF2ngSw3-19" value="" style="endArrow=none;html=1;rounded=0;exitX=1;exitY=0.75;exitDx=0;exitDy=0;entryX=0;entryY=0.5;entryDx=0;entryDy=0;" edge="1" parent="1" source="n2ul2gyaZ89mqF2ngSw3-9" target="n2ul2gyaZ89mqF2ngSw3-10">
          <mxGeometry relative="1" as="geometry">
            <mxPoint x="695" y="580" as="sourcePoint" />
            <mxPoint x="605" y="500" as="targetPoint" />
          </mxGeometry>
        </mxCell>
        <mxCell id="n2ul2gyaZ89mqF2ngSw3-20" value="" style="endArrow=none;html=1;rounded=0;exitX=1;exitY=0.5;exitDx=0;exitDy=0;entryX=0.5;entryY=1;entryDx=0;entryDy=0;" edge="1" parent="1" source="n2ul2gyaZ89mqF2ngSw3-5" target="n2ul2gyaZ89mqF2ngSw3-3">
          <mxGeometry relative="1" as="geometry">
            <mxPoint x="513" y="600" as="sourcePoint" />
            <mxPoint x="580" y="500" as="targetPoint" />
          </mxGeometry>
        </mxCell>
        <mxCell id="n2ul2gyaZ89mqF2ngSw3-21" value="" style="endArrow=none;html=1;rounded=0;exitX=0.5;exitY=1;exitDx=0;exitDy=0;entryX=0.433;entryY=0.001;entryDx=0;entryDy=0;entryPerimeter=0;" edge="1" parent="1" source="n2ul2gyaZ89mqF2ngSw3-11" target="n2ul2gyaZ89mqF2ngSw3-3">
          <mxGeometry relative="1" as="geometry">
            <mxPoint x="240" y="630" as="sourcePoint" />
            <mxPoint x="400" y="690" as="targetPoint" />
          </mxGeometry>
        </mxCell>
        <mxCell id="n2ul2gyaZ89mqF2ngSw3-22" value="" style="endArrow=none;html=1;rounded=0;exitX=0.369;exitY=1.067;exitDx=0;exitDy=0;entryX=1;entryY=0.5;entryDx=0;entryDy=0;exitPerimeter=0;" edge="1" parent="1" source="n2ul2gyaZ89mqF2ngSw3-8" target="n2ul2gyaZ89mqF2ngSw3-3">
          <mxGeometry relative="1" as="geometry">
            <mxPoint x="230" y="650" as="sourcePoint" />
            <mxPoint x="353" y="690" as="targetPoint" />
          </mxGeometry>
        </mxCell>
        <mxCell id="n2ul2gyaZ89mqF2ngSw3-23" value="" style="endArrow=none;html=1;rounded=0;exitX=1;exitY=0.5;exitDx=0;exitDy=0;entryX=0.5;entryY=1;entryDx=0;entryDy=0;" edge="1" parent="1" source="n2ul2gyaZ89mqF2ngSw3-11" target="n2ul2gyaZ89mqF2ngSw3-7">
          <mxGeometry relative="1" as="geometry">
            <mxPoint x="230" y="650" as="sourcePoint" />
            <mxPoint x="353" y="690" as="targetPoint" />
          </mxGeometry>
        </mxCell>
        <mxCell id="n2ul2gyaZ89mqF2ngSw3-24" value="" style="endArrow=none;html=1;rounded=0;exitX=0.5;exitY=1;exitDx=0;exitDy=0;entryX=0;entryY=0.5;entryDx=0;entryDy=0;" edge="1" parent="1" source="n2ul2gyaZ89mqF2ngSw3-9" target="n2ul2gyaZ89mqF2ngSw3-7">
          <mxGeometry relative="1" as="geometry">
            <mxPoint x="280" y="630" as="sourcePoint" />
            <mxPoint x="374" y="600" as="targetPoint" />
          </mxGeometry>
        </mxCell>
        <mxCell id="n2ul2gyaZ89mqF2ngSw3-25" value="" style="endArrow=none;html=1;rounded=0;exitX=1;exitY=0.5;exitDx=0;exitDy=0;entryX=0;entryY=0.75;entryDx=0;entryDy=0;" edge="1" parent="1" source="n2ul2gyaZ89mqF2ngSw3-12" target="n2ul2gyaZ89mqF2ngSw3-4">
          <mxGeometry relative="1" as="geometry">
            <mxPoint x="474" y="300" as="sourcePoint" />
            <mxPoint x="593" y="464" as="targetPoint" />
          </mxGeometry>
        </mxCell>
        <mxCell id="n2ul2gyaZ89mqF2ngSw3-26" value="" style="endArrow=none;html=1;rounded=0;entryX=0.5;entryY=1;entryDx=0;entryDy=0;exitX=0.665;exitY=0.054;exitDx=0;exitDy=0;exitPerimeter=0;" edge="1" parent="1" source="n2ul2gyaZ89mqF2ngSw3-9" target="n2ul2gyaZ89mqF2ngSw3-4">
          <mxGeometry relative="1" as="geometry">
            <mxPoint x="160" y="400" as="sourcePoint" />
            <mxPoint x="340" y="320" as="targetPoint" />
          </mxGeometry>
        </mxCell>
        <mxCell id="n2ul2gyaZ89mqF2ngSw3-27" value="" style="endArrow=none;html=1;rounded=0;exitX=0.25;exitY=1;exitDx=0;exitDy=0;entryX=0;entryY=0.75;entryDx=0;entryDy=0;" edge="1" parent="1" source="n2ul2gyaZ89mqF2ngSw3-12" target="n2ul2gyaZ89mqF2ngSw3-3">
          <mxGeometry relative="1" as="geometry">
            <mxPoint x="254" y="640" as="sourcePoint" />
            <mxPoint x="353" y="690" as="targetPoint" />
          </mxGeometry>
        </mxCell>
      </root>
    </mxGraphModel>
  </diagram>
</mxfile>
